<?xml version="1.0" encoding="utf-8"?>
<!-- Generator: Adobe Illustrator 23.0.1, SVG Export Plug-In . SVG Version: 6.00 Build 0)  -->
<svg version="1.1" id="Layer_1" xmlns="http://www.w3.org/2000/svg" xmlns:xlink="http://www.w3.org/1999/xlink" x="0px" y="0px"
	 viewBox="0 0 452.8 148.3" style="enable-background:new 0 0 452.8 148.3;" xml:space="preserve">
<style type="text/css">
	.st0{fill:none;stroke:#FFFFFF;stroke-width:2;stroke-miterlimit:10;}
	.st1{fill:none;stroke:#FFFFFF;stroke-miterlimit:10;}
	.st2{fill:none;stroke:#FFFFFF;stroke-width:3;stroke-miterlimit:10;}
</style>
<title>kedust-full</title>
<rect x="1" y="1" class="st0" width="146.3" height="146.3"/>
<line class="st1" x1="37.8" y1="83" x2="37.8" y2="113.4"/>
<rect x="37.8" y="77.4" class="st1" width="75.3" height="5.6"/>
<rect x="44.5" y="87.9" class="st1" width="16.5" height="6.3"/>
<line class="st1" x1="52.8" y1="94.2" x2="52.8" y2="111.1"/>
<line class="st1" x1="49.8" y1="111.1" x2="55.7" y2="111.1"/>
<rect x="67.2" y="87.9" class="st1" width="16.5" height="6.3"/>
<line class="st1" x1="75.5" y1="94.2" x2="75.5" y2="111.1"/>
<line class="st1" x1="72.5" y1="111.1" x2="78.5" y2="111.1"/>
<rect x="90" y="87.9" class="st1" width="16.5" height="6.3"/>
<line class="st1" x1="98.3" y1="94.2" x2="98.3" y2="111.1"/>
<line class="st1" x1="95.3" y1="111.1" x2="101.2" y2="111.1"/>
<line class="st1" x1="113.2" y1="83" x2="113.2" y2="113.4"/>
<polyline class="st1" points="61,76.7 61,72 66.6,67.3 55.3,67.3 61,72 "/>
<line class="st1" x1="41.2" y1="58.5" x2="72.5" y2="58.5"/>
<path class="st1" d="M43.6,58.5V45.7c0.2-0.5,0.3-0.9,0.6-1.3c0.4-0.3,0.9-0.5,1.4-0.6h6.6c0.5,0.2,1,0.3,1.5,0.6
	c0.2,0.2,0.2,1,0.2,1v13.1"/>
<path class="st1" d="M45.8,43.4v-5.2c0.1-0.2,0.2-0.4,0.3-0.5c0.3-0.1,0.5-0.2,0.8-0.2h3.7c0.3,0.1,0.5,0.1,0.8,0.2
	c0.1,0.1,0.1,0.4,0.1,0.4v5.3"/>
<line class="st1" x1="46.8" y1="47.5" x2="50.7" y2="47.5"/>
<path class="st1" d="M58.6,58.1V45.3c0.2-0.5,0.3-0.9,0.6-1.3c0.4-0.3,0.9-0.5,1.4-0.6h6.6c0.5,0.2,1,0.3,1.5,0.6
	c0.2,0.2,0.2,1,0.2,1v13.1"/>
<path class="st1" d="M60.8,43v-5.2c0.1-0.2,0.2-0.4,0.3-0.5c0.3-0.1,0.5-0.2,0.8-0.2h3.7c0.3,0.1,0.6,0.1,0.8,0.2
	c0.1,0.1,0.1,0.4,0.1,0.4V43"/>
<line class="st1" x1="61.8" y1="47.1" x2="65.7" y2="47.1"/>
<line class="st1" x1="79.6" y1="49.2" x2="111" y2="49.2"/>
<path class="st1" d="M78.5,65.5h8.9v-5.7c0,0,0-5-4.5-5s-4.5,5.4-4.5,5.4V65.5z"/>
<line class="st1" x1="82.9" y1="54.8" x2="82.9" y2="47.5"/>
<line class="st1" x1="79.6" y1="47.5" x2="86.3" y2="47.5"/>
<path class="st1" d="M89.9,65.5h8.9v-5.7c0,0,0-5-4.5-5s-4.5,5.4-4.5,5.4V65.5z"/>
<line class="st1" x1="94.3" y1="54.8" x2="94.3" y2="47.5"/>
<line class="st1" x1="91" y1="47.5" x2="97.7" y2="47.5"/>
<path class="st1" d="M101.3,65.5h8.9v-5.7c0,0,0-5-4.5-5s-4.5,5.4-4.5,5.4V65.5z"/>
<line class="st1" x1="105.7" y1="54.8" x2="105.7" y2="47.5"/>
<line class="st1" x1="102.4" y1="47.5" x2="109" y2="47.5"/>
<line class="st2" x1="174.9" y1="43" x2="174.9" y2="106.4"/>
<line class="st2" x1="204.7" y1="60.1" x2="174.9" y2="87.9"/>
<line class="st2" x1="184.6" y1="78.9" x2="208" y2="105.2"/>
<path class="st2" d="M226.3,83h37.6c0,0,0-20.9-18.8-20.9c-20.6,0-20.6,20.9-20.6,20.9s0,19.6,19.7,19.6c12.2,0,17.2-4.4,17.2-4.4"
	/>
<path class="st2" d="M280.3,82.4c0,11.2,9.1,20.3,20.3,20.3s20.3-9.1,20.3-20.3c0-11.2-9.1-20.3-20.3-20.3
	C289.3,62.1,280.3,71.1,280.3,82.4C280.3,82.3,280.3,82.4,280.3,82.4z"/>
<line class="st2" x1="320.8" y1="105.2" x2="320.8" y2="43"/>
<path class="st2" d="M337.8,60.1V91c0,0,0,11.6,14.4,11.6c17.2,0,20.6-10.6,20.6-10.6"/>
<line class="st2" x1="372.7" y1="106.4" x2="372.7" y2="60.1"/>
<path class="st2" d="M413.9,70.1c0,0-2.9-8-11.2-8c-11.7,0-10.5,9.8-10.5,9.8c2.6,6,7.5,7.7,10.5,9.6c3.6,2.4,11.4,7.2,13.2,11.1
	c1.7,3.7,0,11-12.2,11c-10.2,0-14.4-8.8-14.4-8.8"/>
<path class="st2" d="M437.1,49.2v49c2.8,4.5,5.1,4,7.1,4.4s8.1-1.4,8.1-1.4"/>
<line class="st2" x1="427.3" y1="63.2" x2="451.4" y2="63.2"/>
<path class="st0" d="M-1.3-0.8"/>
<line class="st2" x1="230.9" y1="57.8" x2="256.3" y2="43.4"/>
</svg>
