<?xml version="1.0" encoding="utf-8"?>
<!-- Generator: Adobe Illustrator 23.0.1, SVG Export Plug-In . SVG Version: 6.00 Build 0)  -->
<svg version="1.1" id="Layer_1" xmlns="http://www.w3.org/2000/svg" xmlns:xlink="http://www.w3.org/1999/xlink" x="0px" y="0px"
	 viewBox="0 0 452.77 148.31" style="enable-background:new 0 0 452.77 148.31;" xml:space="preserve">
<style type="text/css">
	.st0{fill:none;stroke:#F0750F;stroke-width:2;stroke-miterlimit:10;}
	.st1{fill:none;stroke:#F0750F;stroke-miterlimit:10;}
	.st2{fill:none;stroke:#F0750F;stroke-width:3;stroke-miterlimit:10;}
</style>
<title>kedust-full</title>
<rect x="1" y="1" class="st0" width="146.31" height="146.31"/>
<line class="st1" x1="37.85" y1="83" x2="37.85" y2="113.37"/>
<rect x="37.85" y="77.45" class="st1" width="75.32" height="5.55"/>
<rect x="44.48" y="87.88" class="st1" width="16.55" height="6.27"/>
<line class="st1" x1="52.76" y1="94.16" x2="52.76" y2="111.11"/>
<line class="st1" x1="49.78" y1="111.11" x2="55.73" y2="111.11"/>
<rect x="67.24" y="87.88" class="st1" width="16.55" height="6.27"/>
<line class="st1" x1="75.51" y1="94.16" x2="75.51" y2="111.11"/>
<line class="st1" x1="72.53" y1="111.11" x2="78.49" y2="111.11"/>
<rect x="89.99" y="87.88" class="st1" width="16.55" height="6.27"/>
<line class="st1" x1="98.27" y1="94.16" x2="98.27" y2="111.11"/>
<line class="st1" x1="95.29" y1="111.11" x2="101.24" y2="111.11"/>
<line class="st1" x1="113.17" y1="83" x2="113.17" y2="113.37"/>
<polyline class="st1" points="61.03,76.69 61.03,71.98 66.63,67.29 55.26,67.29 61.03,71.98 "/>
<line class="st1" x1="41.17" y1="58.5" x2="72.53" y2="58.5"/>
<path class="st1" d="M43.6,58.5V45.67c0.15-0.46,0.35-0.9,0.59-1.32c0.43-0.26,0.89-0.45,1.38-0.56h6.59
	c0.5,0.15,0.99,0.35,1.46,0.59c0.23,0.22,0.23,1,0.23,1V58.5"/>
<path class="st1" d="M45.83,43.37v-5.21c0.09-0.19,0.2-0.37,0.33-0.54c0.25-0.1,0.51-0.18,0.78-0.23h3.73
	c0.28,0.06,0.55,0.14,0.82,0.24c0.14,0.09,0.13,0.41,0.13,0.41v5.33"/>
<line class="st1" x1="46.79" y1="47.54" x2="50.65" y2="47.54"/>
<path class="st1" d="M58.61,58.1V45.27c0.15-0.46,0.35-0.9,0.6-1.32c0.43-0.26,0.89-0.45,1.38-0.56h6.58
	c0.5,0.15,0.99,0.35,1.46,0.59c0.23,0.22,0.23,1,0.23,1V58.1"/>
<path class="st1" d="M60.84,42.96v-5.2c0.09-0.2,0.2-0.38,0.34-0.54c0.25-0.11,0.51-0.18,0.78-0.23h3.72
	c0.28,0.06,0.55,0.14,0.82,0.24c0.14,0.09,0.14,0.41,0.14,0.41v5.32"/>
<line class="st1" x1="61.81" y1="47.15" x2="65.66" y2="47.15"/>
<line class="st1" x1="79.61" y1="49.24" x2="110.97" y2="49.24"/>
<path class="st1" d="M78.49,65.51h8.93v-5.74c0,0,0-5-4.47-5s-4.46,5.36-4.46,5.36V65.51z"/>
<line class="st1" x1="82.95" y1="54.79" x2="82.95" y2="47.54"/>
<line class="st1" x1="79.62" y1="47.54" x2="86.29" y2="47.54"/>
<path class="st1" d="M89.87,65.51h8.93v-5.74c0,0,0-5-4.47-5s-4.46,5.36-4.46,5.36V65.51z"/>
<line class="st1" x1="94.33" y1="54.79" x2="94.33" y2="47.54"/>
<line class="st1" x1="90.99" y1="47.54" x2="97.66" y2="47.54"/>
<path class="st1" d="M101.25,65.51h8.92v-5.74c0,0,0-5-4.46-5s-4.46,5.36-4.46,5.36V65.51z"/>
<line class="st1" x1="105.71" y1="54.79" x2="105.71" y2="47.54"/>
<line class="st1" x1="102.37" y1="47.54" x2="109.04" y2="47.54"/>
<line class="st2" x1="174.9" y1="42.96" x2="174.9" y2="106.44"/>
<line class="st2" x1="204.73" y1="60.15" x2="174.9" y2="87.88"/>
<line class="st2" x1="184.61" y1="78.86" x2="208.03" y2="105.19"/>
<path class="st2" d="M226.3,83h37.61c0,0,0-20.94-18.8-20.94c-20.56,0-20.56,20.94-20.56,20.94s0,19.64,19.68,19.64
	c12.16,0,17.18-4.45,17.18-4.45"/>
<path class="st2" d="M280.27,82.36c0.01,11.21,9.09,20.29,20.3,20.28c11.21-0.01,20.29-9.09,20.28-20.3
	c-0.01-11.2-9.09-20.28-20.29-20.28c-11.21,0-20.29,9.08-20.29,20.29C280.27,82.35,280.27,82.36,280.27,82.36z"/>
<line class="st2" x1="320.78" y1="105.19" x2="320.78" y2="42.96"/>
<path class="st2" d="M337.76,60.15v30.88c0,0,0,11.61,14.42,11.61c17.18,0,20.56-10.61,20.56-10.61"/>
<line class="st2" x1="372.74" y1="106.44" x2="372.74" y2="60.15"/>
<path class="st2" d="M413.86,70.08c0,0-2.88-8-11.16-8c-11.66,0-10.53,9.78-10.53,9.78c2.64,6,7.55,7.65,10.48,9.55
	c3.62,2.36,11.4,7.22,13.22,11.14c1.73,3.73,0,11-12.23,11c-10.21,0-14.35-8.78-14.35-8.78"/>
<path class="st2" d="M437.12,49.24v49c2.82,4.51,5.08,4,7.15,4.45s8.08-1.4,8.08-1.4"/>
<line class="st2" x1="427.34" y1="63.25" x2="451.41" y2="63.25"/>
<path class="st0" d="M-1.32-0.84"/>
<line class="st2" x1="230.92" y1="57.79" x2="256.26" y2="43.38"/>
</svg>
