<svg id="Layer_2" data-name="Layer 2" xmlns="http://www.w3.org/2000/svg" viewBox="0 0 452.77 148.31">
    <defs>
        <style>
            .cls-1,.cls-2,.cls-3{fill:none;stroke:#000000;stroke-miterlimit:10;}.cls-1{stroke-width:2px;}.cls-3{stroke-width:3px;}
        </style>
    </defs>
    <title>kedust-full</title>
    <rect class="cls-1" x="1" y="1" width="146.31" height="146.31"/>
    <line class="cls-2" x1="37.85" y1="83" x2="37.85" y2="113.37"/>
    <rect class="cls-2" x="37.85" y="77.45" width="75.32" height="5.55"/>
    <rect class="cls-2" x="44.48" y="87.88" width="16.55" height="6.27"/>
    <line class="cls-2" x1="52.76" y1="94.16" x2="52.76" y2="111.11"/>
    <line class="cls-2" x1="49.78" y1="111.11" x2="55.73" y2="111.11"/>
    <rect class="cls-2" x="67.24" y="87.88" width="16.55" height="6.27"/>
    <line class="cls-2" x1="75.51" y1="94.16" x2="75.51" y2="111.11"/>
    <line class="cls-2" x1="72.53" y1="111.11" x2="78.49" y2="111.11"/>
    <rect class="cls-2" x="89.99" y="87.88" width="16.55" height="6.27"/>
    <line class="cls-2" x1="98.27" y1="94.16" x2="98.27" y2="111.11"/>
    <line class="cls-2" x1="95.29" y1="111.11" x2="101.24" y2="111.11"/>
    <line class="cls-2" x1="113.17" y1="83" x2="113.17" y2="113.37"/>
    <polyline class="cls-2" points="61.03 76.69 61.03 71.98 66.63 67.29 55.26 67.29 61.03 71.98"/>
    <line class="cls-2" x1="41.17" y1="58.5" x2="72.53" y2="58.5"/>
    <path class="cls-2"
          d="M44.63,59.59V46.76a6.54,6.54,0,0,1,.59-1.32,4.88,4.88,0,0,1,1.38-.56h6.59a8.54,8.54,0,0,1,1.46.59c.23.22.23,1,.23,1V59.59"
          transform="translate(-1.03 -1.09)"/>
    <path class="cls-2"
          d="M46.86,44.46V39.25a2.51,2.51,0,0,1,.33-.54,3.73,3.73,0,0,1,.78-.23H51.7a6.17,6.17,0,0,1,.82.24c.14.09.13.41.13.41v5.33"
          transform="translate(-1.03 -1.09)"/>
    <line class="cls-2" x1="46.79" y1="47.54" x2="50.65" y2="47.54"/>
    <path class="cls-2"
          d="M59.64,59.19V46.36a6.68,6.68,0,0,1,.6-1.32,4.77,4.77,0,0,1,1.38-.56H68.2a8.54,8.54,0,0,1,1.46.59c.23.22.23,1,.23,1V59.19"
          transform="translate(-1.03 -1.09)"/>
    <path class="cls-2"
          d="M61.87,44.05v-5.2a2.26,2.26,0,0,1,.34-.54,3.56,3.56,0,0,1,.78-.23h3.72a6.17,6.17,0,0,1,.82.24c.14.09.14.41.14.41v5.32"
          transform="translate(-1.03 -1.09)"/>
    <line class="cls-2" x1="61.81" y1="47.15" x2="65.66" y2="47.15"/>
    <line class="cls-2" x1="79.61" y1="49.24" x2="110.97" y2="49.24"/>
    <path class="cls-2" d="M79.52,66.6h8.93V60.86s0-5-4.47-5-4.46,5.36-4.46,5.36Z" transform="translate(-1.03 -1.09)"/>
    <line class="cls-2" x1="82.95" y1="54.79" x2="82.95" y2="47.54"/>
    <line class="cls-2" x1="79.62" y1="47.54" x2="86.29" y2="47.54"/>
    <path class="cls-2" d="M90.9,66.6h8.93V60.86s0-5-4.47-5-4.46,5.36-4.46,5.36Z" transform="translate(-1.03 -1.09)"/>
    <line class="cls-2" x1="94.33" y1="54.79" x2="94.33" y2="47.54"/>
    <line class="cls-2" x1="90.99" y1="47.54" x2="97.66" y2="47.54"/>
    <path class="cls-2" d="M102.28,66.6h8.92V60.86s0-5-4.46-5-4.46,5.36-4.46,5.36Z" transform="translate(-1.03 -1.09)"/>
    <line class="cls-2" x1="105.71" y1="54.79" x2="105.71" y2="47.54"/>
    <line class="cls-2" x1="102.37" y1="47.54" x2="109.04" y2="47.54"/>
    <line class="cls-3" x1="174.9" y1="42.96" x2="174.9" y2="106.44"/>
    <line class="cls-3" x1="204.73" y1="60.15" x2="174.9" y2="87.88"/>
    <line class="cls-3" x1="184.61" y1="78.86" x2="208.03" y2="105.19"/>
    <path class="cls-3"
          d="M227.33,84.09h37.61s0-20.94-18.8-20.94c-20.56,0-20.56,20.94-20.56,20.94s0,19.64,19.68,19.64c12.16,0,17.18-4.45,17.18-4.45"
          transform="translate(-1.03 -1.09)"/>
    <path class="cls-3" d="M281.3,83.45a20.29,20.29,0,1,0,20.29-20.3A20.29,20.29,0,0,0,281.3,83.45Z"
          transform="translate(-1.03 -1.09)"/>
    <line class="cls-3" x1="320.78" y1="105.19" x2="320.78" y2="42.96"/>
    <path class="cls-3" d="M338.79,61.24V92.12s0,11.61,14.42,11.61c17.18,0,20.56-10.61,20.56-10.61"
          transform="translate(-1.03 -1.09)"/>
    <line class="cls-3" x1="372.74" y1="106.44" x2="372.74" y2="60.15"/>
    <path class="cls-3"
          d="M414.89,71.17s-2.88-8-11.16-8c-11.66,0-10.53,9.78-10.53,9.78,2.64,6,7.55,7.65,10.48,9.55,3.62,2.36,11.4,7.22,13.22,11.14,1.73,3.73,0,11-12.23,11-10.21,0-14.35-8.78-14.35-8.78"
          transform="translate(-1.03 -1.09)"/>
    <path class="cls-3" d="M438.15,50.33v49c2.82,4.51,5.08,4,7.15,4.45s8.08-1.4,8.08-1.4"
          transform="translate(-1.03 -1.09)"/>
    <line class="cls-3" x1="427.34" y1="63.25" x2="451.41" y2="63.25"/>
    <path class="cls-1" d="M-.29.25" transform="translate(-1.03 -1.09)"/>
    <line class="cls-3" x1="230.92" y1="57.79" x2="256.26" y2="43.38"/>
</svg>